<?xml version="1.0" encoding="iso-8859-1"?>
<!-- Generator: Adobe Illustrator 19.0.0, SVG Export Plug-In . SVG Version: 6.00 Build 0)  -->
<svg version="1.1" id="Capa_1" xmlns="http://www.w3.org/2000/svg" xmlns:xlink="http://www.w3.org/1999/xlink" x="0px" y="0px"
	 viewBox="0 0 480 480" style="enable-background:new 0 0 480 480;" xml:space="preserve">
<g>
	<g>
		<path d="M392,224h-96v-56c0-13.255-10.745-24-24-24H128c-13.255,0-24,10.745-24,24v56H8c-4.418,0-8,3.582-8,8v240
			c0,4.418,3.582,8,8,8h384c4.418,0,8-3.582,8-8V232C400,227.582,396.418,224,392,224z M384,464H16V240h96c4.418,0,8-3.582,8-8v-64
			c0-4.418,3.582-8,8-8h144c4.418,0,8,3.582,8,8v64c0,4.418,3.582,8,8,8h96V464z"/>
	</g>
</g>
<g>
	<g>
		<path d="M200,248c-57.438,0-104,46.562-104,104s46.562,104,104,104s104-46.562,104-104C303.934,294.59,257.41,248.066,200,248z
			 M200,440c-48.601,0-88-39.399-88-88c0-48.601,39.399-88,88-88s88,39.399,88,88C287.943,400.577,248.577,439.943,200,440z"/>
	</g>
</g>
<g>
	<g>
		<path d="M264,168h-48c-4.418,0-8,3.582-8,8v32c0,4.418,3.582,8,8,8h48c4.418,0,8-3.582,8-8v-32C272,171.582,268.418,168,264,168z
			 M256,200h-32v-16h32V200z"/>
	</g>
</g>
<g>
	<g>
		<rect x="408" y="416" width="16" height="16"/>
	</g>
</g>
<g>
	<g>
		<rect x="432" y="416" width="16" height="16"/>
	</g>
</g>
<g>
	<g>
		<path d="M464,408v8h-8v16h16c4.418,0,8-3.582,8-8v-16H464z"/>
	</g>
</g>
<g>
	<g>
		<rect x="464" y="360" width="16" height="32"/>
	</g>
</g>
<g>
	<g>
		<rect x="464" y="88" width="16" height="32"/>
	</g>
</g>
<g>
	<g>
		<rect x="464" y="128" width="16" height="32"/>
	</g>
</g>
<g>
	<g>
		<rect x="464" y="176" width="16" height="32"/>
	</g>
</g>
<g>
	<g>
		<rect x="464" y="40" width="16" height="32"/>
	</g>
</g>
<g>
	<g>
		<rect x="464" y="272" width="16" height="32"/>
	</g>
</g>
<g>
	<g>
		<rect x="464" y="224" width="16" height="32"/>
	</g>
</g>
<g>
	<g>
		<rect x="464" y="312" width="16" height="32"/>
	</g>
</g>
<g>
	<g>
		<path d="M472,0h-16v16h8v8h16V8C480,3.582,476.418,0,472,0z"/>
	</g>
</g>
<g>
	<g>
		<rect x="272" width="32" height="16"/>
	</g>
</g>
<g>
	<g>
		<rect x="224" width="32" height="16"/>
	</g>
</g>
<g>
	<g>
		<rect x="136" width="32" height="16"/>
	</g>
</g>
<g>
	<g>
		<rect x="320" width="32" height="16"/>
	</g>
</g>
<g>
	<g>
		<rect x="408" width="32" height="16"/>
	</g>
</g>
<g>
	<g>
		<rect x="360" width="32" height="16"/>
	</g>
</g>
<g>
	<g>
		<rect x="176" width="32" height="16"/>
	</g>
</g>
<g>
	<g>
		<rect x="88" width="32" height="16"/>
	</g>
</g>
<g>
	<g>
		<path d="M56,0c-4.418,0-8,3.582-8,8v16h16v-8h8V0H56z"/>
	</g>
</g>
<g>
	<g>
		<rect x="48" y="152" width="16" height="32"/>
	</g>
</g>
<g>
	<g>
		<rect x="48" y="40" width="16" height="32"/>
	</g>
</g>
<g>
	<g>
		<rect x="48" y="96" width="16" height="32"/>
	</g>
</g>
<g>
	<g>
		<rect x="48" y="200" width="16" height="16"/>
	</g>
</g>
<g>
</g>
<g>
</g>
<g>
</g>
<g>
</g>
<g>
</g>
<g>
</g>
<g>
</g>
<g>
</g>
<g>
</g>
<g>
</g>
<g>
</g>
<g>
</g>
<g>
</g>
<g>
</g>
<g>
</g>
</svg>
